# xmcd CD database file
#
# Track frame offsets:
#	150
#	13345
#	26445
#	41610
#	49842
#	59300
#	76930
#	90775
#	104105
#	112120
#	121200
#	135175
#	154975
#	165540
#	192675
#	205775
#
# Disc length: 2903 seconds
#
# Revision: 6
# Processed by: cddbd v1.5.2PL0 Copyright (c) Steve Scherf et al.
# Submitted via: CDex 1.70beta2
#
DISCID=d30b5510
DTITLE=Ned Nash Orchestra - The Greatest Western Movie Themes
DYEAR=1988
DGENRE=Soundtrack
TTITLE0=Rio Bravo (Tiomkin)
TTITLE1=Hang 'm high (Frontiere)
TTITLE2=The Man With the Harmonica (Morricone)
TTITLE3=A Fistful of Dollars (Morricone)
TTITLE4=The Magnificent Seven (Bernstein)
TTITLE5=Once Upon a Time In the West (Morricone)
TTITLE6=My Name Is Nobody (Morricone)
TTITLE7=High Noon (Washington-Tiomkin)
TTITLE8=Ballad of the Alamo (Tionkin-Webster)
TTITLE9=How the West Was Won (Newman-Darby)
TTITLE10=Johnny Guitar (Young)
TTITLE11=Wand'rin Star (Lowe-Lerner)
TTITLE12=The Comancheros (Bernstein-Webster)
TTITLE13=Good Luck Jack (Morricone)
TTITLE14=The Good, the Bad and the Ugly (Morricone)
TTITLE15=For a Few Dollars More (Morricone)
EXTD=LABEL =Laserlight\nID =15055\nUPC =01811-15055-29\nCOPYRIGHT =none YEAR: 1988
EXTT0=
EXTT1=
EXTT2=
EXTT3=
EXTT4=
EXTT5=
EXTT6=
EXTT7=
EXTT8=
EXTT9=
EXTT10=
EXTT11=
EXTT12=
EXTT13=
EXTT14=
EXTT15=
PLAYORDER=
